<svg xmlns="http://www.w3.org/2000/svg" width="64" height="64" fill="none" viewBox="0 0 64 64"><mask id="mask0_185_81" width="64" height="64" x="0" y="0" maskUnits="userSpaceOnUse" style="mask-type:alpha"><g clip-path="url(#clip0_185_81)"><path fill="#000" d="M56.7056 11.24C56.4682 11.2156 56.2288 11.2156 55.9913 11.24H7.21022C6.89758 11.2448 6.587 11.2917 6.28687 11.3794L31.4614 36.4494L56.7056 11.24Z"/><path fill="#000" d="M59.284 13.6621L33.9178 38.9238C33.2649 39.5727 32.3818 39.937 31.4613 39.937C30.5408 39.937 29.6577 39.5727 29.0048 38.9238L3.86512 13.8537C3.78783 14.1378 3.74686 14.4305 3.74316 14.7248V49.5685C3.74316 50.4926 4.11027 51.3789 4.76371 52.0323C5.41716 52.6858 6.30342 53.0529 7.22753 53.0529H56.0086C56.9328 53.0529 57.819 52.6858 58.4725 52.0323C59.1259 51.3789 59.493 50.4926 59.493 49.5685V14.7248C59.4791 14.3619 59.4086 14.0033 59.284 13.6621ZM9.61432 49.5685H7.19269V47.0772L19.8584 34.516L22.3148 36.9725L9.61432 49.5685ZM55.9738 49.5685H53.5347L40.8342 36.9725L43.2907 34.516L55.9564 47.0772L55.9738 49.5685Z"/></g></mask><g mask="url(#mask0_185_81)"><rect width="72.045" height="75.912" x="-4.282" y="-6.938" fill="#0B2545"/></g><defs><clipPath id="clip0_185_81"><rect width="62.719" height="62.719" fill="#fff" transform="translate(0.380859 0.787109)"/></clipPath></defs></svg>