<svg width="19" height="19" viewBox="0 0 19 19" fill="none" xmlns="http://www.w3.org/2000/svg">
<path d="M1.09712 0.822097C1.19099 0.742447 1.3062 0.692125 1.42842 0.677377C1.55065 0.66263 1.67451 0.684107 1.78464 0.739142L18.1243 8.90896C18.2285 8.96121 18.3162 9.04143 18.3774 9.14065C18.4387 9.23987 18.4711 9.35418 18.4711 9.47079C18.4711 9.5874 18.4387 9.70171 18.3774 9.80093C18.3162 9.90015 18.2285 9.98037 18.1243 10.0326L1.78464 18.2024C1.67459 18.2576 1.55075 18.2793 1.42851 18.2647C1.30627 18.2501 1.191 18.1999 1.09702 18.1204C1.00304 18.0409 0.934483 17.9355 0.899867 17.8174C0.86525 17.6992 0.866096 17.5735 0.9023 17.4558L3.35953 9.47079L0.9023 1.48574C0.866304 1.36819 0.865574 1.24266 0.900202 1.12471C0.93483 1.00675 1.00329 0.901535 1.09712 0.822097ZM4.48068 10.0992L2.53626 16.4214L16.4375 9.47079L2.53626 2.52016L4.48068 8.84234H11.5583C11.7249 8.84234 11.8848 8.90856 12.0026 9.02641C12.1205 9.14427 12.1867 9.30412 12.1867 9.47079C12.1867 9.63747 12.1205 9.79731 12.0026 9.91517C11.8848 10.033 11.7249 10.0992 11.5583 10.0992H4.48194H4.48068Z" fill="#EEF4ED" stroke="#EEF4ED"/>
</svg>
